<svg width="212" height="68" viewBox="0 0 212 68" fill="none" xmlns="http://www.w3.org/2000/svg">
<g clip-path="url(#clip0_298_182)">
<path d="M125.298 11.501V36.9942L103.66 50.1312L112.107 50.8983L131.502 39.2074V14.59L125.298 11.501Z" fill="white"/>
<path d="M90.5312 39.3969L96.5928 33.7008V17.2168H90.5312V39.3969Z" fill="white"/>
<path d="M0 7.37305L4.81819 12.655H52.6757L47.1209 24.8619H53.5677L61.5552 7.37305H0Z" fill="white"/>
<path d="M34.4029 19.5465L34.3556 19.5941L34.3961 19.499H28.4426L14.5625 53.2953H20.4416L31.3552 26.872H41.0929L34.4029 19.5465Z" fill="white"/>
<path d="M64.778 62.5078H60.7775C59.5138 62.5078 58.8516 63.0713 58.8516 64.1372V68.0002H60.4869V66.5134H65.0686V68.0002H66.7039V64.1372C66.7039 63.0713 66.0349 62.5078 64.778 62.5078ZM60.4869 64.144C60.4869 64.0014 60.5342 63.9132 60.7775 63.9132H64.778C65.0213 63.9132 65.0686 63.9946 65.0686 64.144V65.1148H60.4869V64.144Z" fill="white"/>
<path d="M91.5203 64.7017V64.145C91.5203 63.0791 90.8513 62.5156 89.5944 62.5156H83.668V68.008H85.3033V66.3311H87.7293L89.7025 67.9877L89.7228 68.008H92.0609L90.0336 66.3108C91.0067 66.1885 91.5203 65.6386 91.5203 64.7085V64.7017ZM89.885 64.145V64.7017C89.885 64.8443 89.8377 64.9326 89.5944 64.9326H85.3033V63.9142H89.5944C89.8377 63.9142 89.885 63.9957 89.885 64.145Z" fill="white"/>
<path d="M110.116 64.1309H108.48V68.0007H110.116V64.1309Z" fill="white"/>
<path d="M133.254 62.5078L130.652 64.5581H128.706V62.5078H127.07V68.0002H128.706V65.9567H130.652L133.206 67.9663L133.254 68.0002H135.727L132.233 65.2574L135.727 62.5078H133.254Z" fill="white"/>
<path d="M157.813 62.5078H153.813C152.549 62.5078 151.887 63.0713 151.887 64.1372V68.0002H153.522V66.5134H158.104V68.0002H159.739V64.1372C159.739 63.0713 159.07 62.5078 157.813 62.5078ZM153.522 64.144C153.522 64.0014 153.569 63.9132 153.813 63.9132H157.813C158.056 63.9132 158.104 63.9946 158.104 64.144V65.1148H153.522V64.144Z" fill="white"/>
<path d="M109.297 61.0283C108.662 61.0283 108.148 61.4764 108.148 62.0195C108.148 62.5627 108.662 63.0107 109.297 63.0107C109.932 63.0107 110.446 62.5627 110.446 62.0195C110.446 61.4764 109.932 61.0283 109.297 61.0283Z" fill="white"/>
<path d="M93.6127 10.6315C95.9228 10.6315 97.7956 8.75 97.7956 6.42904C97.7956 4.10808 95.9228 2.22656 93.6127 2.22656C91.3025 2.22656 89.4297 4.10808 89.4297 6.42904C89.4297 8.75 91.3025 10.6315 93.6127 10.6315Z" fill="#FDD000"/>
<path d="M49.3674 29.3304L44.8471 33.8718C44.636 34.0839 44.636 34.4278 44.8471 34.6399L49.3674 39.1813C49.5786 39.3934 49.9209 39.3934 50.132 39.1813L54.6523 34.6399C54.8634 34.4278 54.8634 34.0839 54.6523 33.8718L50.132 29.3304C49.9209 29.1183 49.5786 29.1183 49.3674 29.3304Z" fill="#FDD000"/>
<path d="M182.897 10.9237L186.843 0H181.005L177.065 10.9237H158.238L162.002 16.3482H175.092L167.131 37.1977H172.97L180.93 16.3482H203.474L194.601 52.4325H200.588L211.353 10.9237H182.897Z" fill="white"/>
<path d="M174.44 48.413L170.149 42.6558C169.736 42.0991 169.061 42.0991 168.642 42.6558L164.35 48.413C163.938 48.9697 164.127 49.4178 164.783 49.4178H174.014C174.663 49.4178 174.859 48.9629 174.446 48.413H174.44Z" fill="#FDD000"/>
</g>
<defs>
<clipPath id="clip0_298_182">
<rect width="211.351" height="68" fill="white"/>
</clipPath>
</defs>
</svg>
